<svg width="20" height="20" viewBox="0 0 20 20" fill="none" xmlns="http://www.w3.org/2000/svg">
<path d="M11.6839 9.02817L16.9269 9.02817C17.2011 9.02817 17.4544 8.88188 17.5914 8.64444C17.7284 8.40717 17.7284 8.11457 17.5914 7.87732C17.4544 7.63987 17.2011 7.49358 16.9269 7.49358L13.5254 7.49358L19.6378 1.3811C19.8159 1.24766 19.927 1.04358 19.9429 0.821647C19.9586 0.599895 19.8774 0.382072 19.7201 0.224739C19.5627 0.0675707 19.3451 -0.0137816 19.1232 0.00191967C18.9013 0.0177964 18.6972 0.12912 18.5637 0.306982L12.4512 6.41946L12.4512 3.01796C12.4512 2.74393 12.305 2.4906 12.0677 2.35359C11.8302 2.2164 11.5378 2.2164 11.3004 2.35359C11.0629 2.4906 10.9168 2.74393 10.9168 3.01795L10.9168 8.26088C10.9168 8.46443 10.9976 8.6596 11.1414 8.80339C11.2854 8.94736 11.4806 9.02817 11.6839 9.02817L11.6839 9.02817Z" fill="black"/>
<path d="M0.232034 19.7932C0.378854 19.9304 0.57349 20.0046 0.774365 19.9998C0.975241 19.995 1.16613 19.9116 1.30619 19.7675L7.36752 13.5783L7.39321 16.9798C7.39767 17.254 7.54824 17.5048 7.78783 17.6379C8.0276 17.771 8.31997 17.7662 8.55513 17.6251C8.79026 17.4841 8.93226 17.2283 8.92762 16.9543L8.85091 11.7113C8.85091 11.5078 8.7701 11.3126 8.62631 11.1688C8.48234 11.0249 8.28717 10.944 8.08379 10.944L2.84087 11.0208C2.56667 11.0254 2.31585 11.1758 2.18277 11.4156C2.04968 11.6551 2.0545 11.9477 2.19561 12.1829C2.33654 12.4178 2.59237 12.56 2.86641 12.5553L6.26792 12.5041L0.232164 18.6934C0.0837356 18.8379 6.77951e-05 19.0362 6.7777e-05 19.2434C6.77589e-05 19.4505 0.0837355 19.6487 0.232163 19.7932L0.232034 19.7932Z" fill="black"/>
</svg>
