<svg width="20" height="20" viewBox="0 0 20 20" fill="none" xmlns="http://www.w3.org/2000/svg">
<path d="M1.66667 20C1.22222 20 0.833333 19.8333 0.5 19.5C0.166667 19.1667 0 18.7778 0 18.3333V1.66667C0 1.22222 0.166667 0.833333 0.5 0.5C0.833333 0.166667 1.22222 0 1.66667 0H8.58333C8.82407 0 9.02315 0.0787038 9.18056 0.236111C9.33796 0.393519 9.41667 0.592593 9.41667 0.833333C9.41667 1.07407 9.33796 1.27315 9.18056 1.43056C9.02315 1.58796 8.82407 1.66667 8.58333 1.66667H1.66667V18.3333H18.3333V11.4167C18.3333 11.1759 18.412 10.9769 18.5694 10.8194C18.7269 10.662 18.9259 10.5833 19.1667 10.5833C19.4074 10.5833 19.6065 10.662 19.7639 10.8194C19.9213 10.9769 20 11.1759 20 11.4167V18.3333C20 18.7778 19.8333 19.1667 19.5 19.5C19.1667 19.8333 18.7778 20 18.3333 20H1.66667ZM6.69444 13.3056C6.5463 13.1389 6.46759 12.9444 6.45833 12.7222C6.44907 12.5 6.52778 12.3056 6.69444 12.1389L17.1667 1.66667H11.9167C11.6759 1.66667 11.4769 1.58796 11.3194 1.43056C11.162 1.27315 11.0833 1.07407 11.0833 0.833333C11.0833 0.592593 11.162 0.393519 11.3194 0.236111C11.4769 0.0787038 11.6759 0 11.9167 0H19.1667C19.4074 0 19.6065 0.0787038 19.7639 0.236111C19.9213 0.393519 20 0.592593 20 0.833333V8.08333C20 8.32407 19.9213 8.52315 19.7639 8.68056C19.6065 8.83796 19.4074 8.91667 19.1667 8.91667C18.9259 8.91667 18.7269 8.83796 18.5694 8.68056C18.412 8.52315 18.3333 8.32407 18.3333 8.08333V2.86111L7.86111 13.3333C7.71296 13.4815 7.52315 13.5556 7.29167 13.5556C7.06019 13.5556 6.86111 13.4722 6.69444 13.3056Z" fill="black"/>
</svg>
