<svg width="20" height="20" viewBox="0 0 20 20" fill="none" xmlns="http://www.w3.org/2000/svg">
<path d="M1.90882 0.000475564C0.860235 0.000475564 0 0.879241 0 1.94885V11.1443C0 12.2148 0.860235 13.093 1.90898 13.093H7.18063V18.0443C7.18063 19.1151 8.04071 20 9.08961 20H18.091C19.1398 20 20 19.1151 20 18.0443V8.85566C20 7.78494 19.1358 6.91394 18.091 6.91394H12.8194V1.94869C12.8194 0.878132 11.9591 0 10.9104 0H1.90898L1.90882 0.000475564ZM1.90882 1.11003H10.9102C11.3756 1.11003 11.7323 1.4741 11.7323 1.94917V7.42758L11.7321 7.42743C11.7317 7.44136 11.7317 7.45529 11.7321 7.46907V11.1375C11.7321 11.2584 11.7138 11.3743 11.671 11.4773C11.6298 11.5766 11.5676 11.6661 11.4944 11.7407C11.457 11.7788 11.4161 11.8147 11.3721 11.8447C11.2401 11.935 11.0777 11.9834 10.9034 11.9834H1.909C1.44379 11.9834 1.08712 11.6283 1.08712 11.1401V1.94471C1.08712 1.46966 1.44377 1.10557 1.90916 1.10557L1.90882 1.11003ZM12.819 8.02373H18.0906C18.5595 8.02373 18.9127 8.38099 18.9127 8.85589V18.0446C18.9127 18.5193 18.5554 18.8907 18.0906 18.8907H9.08922C8.62444 18.8907 8.26719 18.5195 8.26719 18.0446V13.0932H10.9098C11.366 13.091 11.7888 12.9282 12.1189 12.6494C12.1673 12.6086 12.2105 12.563 12.2548 12.5177C12.3831 12.386 12.5 12.238 12.5876 12.0739C12.5885 12.0717 12.5867 12.0688 12.5876 12.0671C12.6173 12.0117 12.6448 11.959 12.6692 11.9007C12.6944 11.8405 12.7112 11.7835 12.7303 11.7204C12.7485 11.6615 12.7652 11.6012 12.7779 11.54C12.7784 11.5379 12.7775 11.5354 12.7779 11.5332C12.7904 11.4721 12.8054 11.4089 12.8119 11.3459C12.812 11.3437 12.8117 11.3413 12.8119 11.3391C12.8186 11.2738 12.8187 11.2049 12.8187 11.138L12.819 8.02373Z" fill="black"/>
</svg>
