<svg width="20" height="20" viewBox="0 0 20 20" fill="none" xmlns="http://www.w3.org/2000/svg">
<path d="M19.1818 4.70387e-06H13.9389C13.6647 4.70387e-06 13.4113 0.14629 13.2743 0.383738C13.1373 0.621008 13.1373 0.913602 13.2743 1.15086C13.4113 1.38831 13.6646 1.53459 13.9389 1.53459H17.3404L11.2279 7.64707C11.0498 7.78051 10.9387 7.9846 10.9228 8.20653C10.9071 8.42828 10.9883 8.6461 11.1456 8.80344C11.303 8.9606 11.5206 9.04196 11.7425 9.02626C11.9645 9.01038 12.1686 8.89906 12.302 8.72119L18.4145 2.60871V6.01022C18.4145 6.28424 18.5608 6.53757 18.798 6.67458C19.0355 6.81177 19.3279 6.81177 19.5653 6.67458C19.8028 6.53757 19.9489 6.28424 19.9489 6.01022V0.767298C19.9489 0.563747 19.8681 0.368576 19.7243 0.224783C19.5803 0.0808178 19.3852 0 19.1818 0V4.70387e-06Z" fill="black"/>
<path d="M8.6957 11.1508C8.54888 11.0136 8.35424 10.9394 8.15337 10.9443C7.95249 10.9491 7.76161 11.0324 7.62154 11.1765L1.56021 17.3657L1.53452 13.9642C1.53006 13.69 1.3795 13.4392 1.13991 13.3061C0.900139 13.173 0.60776 13.1778 0.372605 13.319C0.137477 13.4599 -0.00452975 13.7157 0.000110326 13.9898L0.0768224 19.2327C0.0768224 19.4362 0.157636 19.6314 0.301428 19.7752C0.445393 19.9192 0.640564 20 0.843942 20L6.08686 19.9233C6.36106 19.9186 6.61189 19.7682 6.74497 19.5285C6.87806 19.2889 6.87324 18.9963 6.73212 18.7612C6.59119 18.5262 6.33536 18.384 6.06132 18.3887L2.65982 18.4399L8.69557 12.2507C8.844 12.1062 8.92767 11.9078 8.92767 11.7007C8.92767 11.4936 8.844 11.2954 8.69557 11.1509L8.6957 11.1508Z" fill="black"/>
</svg>
